<?xml version="1.0" encoding="UTF-8" standalone="no"?>
<svg
   xmlns:dc="http://purl.org/dc/elements/1.1/"
   xmlns:cc="http://creativecommons.org/ns#"
   xmlns:rdf="http://www.w3.org/1999/02/22-rdf-syntax-ns#"
   xmlns:svg="http://www.w3.org/2000/svg"
   xmlns="http://www.w3.org/2000/svg"
   xmlns:sodipodi="http://sodipodi.sourceforge.net/DTD/sodipodi-0.dtd"
   xmlns:inkscape="http://www.inkscape.org/namespaces/inkscape"
   aria-hidden="true"
   focusable="false"
   data-prefix="fas"
   data-icon="globe"
   class="svg-inline--fa fa-globe fa-w-16"
   role="img"
   viewBox="0 0 496 512"
   version="1.1"
   id="svg4"
   sodipodi:docname="globe-solid2.svg"
   inkscape:version="0.92.5 (2060ec1f9f, 2020-04-08)">
  <metadata
     id="metadata10">
    <rdf:RDF>
      <cc:Work
         rdf:about="">
        <dc:format>image/svg+xml</dc:format>
        <dc:type
           rdf:resource="http://purl.org/dc/dcmitype/StillImage" />
        <dc:title></dc:title>
      </cc:Work>
    </rdf:RDF>
  </metadata>
  <defs
     id="defs8" />
  <sodipodi:namedview
     pagecolor="#ffffff"
     bordercolor="#666666"
     borderopacity="1"
     objecttolerance="10"
     gridtolerance="10"
     guidetolerance="10"
     inkscape:pageopacity="0"
     inkscape:pageshadow="2"
     inkscape:window-width="1600"
     inkscape:window-height="837"
     id="namedview6"
     showgrid="false"
     inkscape:zoom="0.4609375"
     inkscape:cx="248"
     inkscape:cy="256"
     inkscape:window-x="-8"
     inkscape:window-y="-8"
     inkscape:window-maximized="1"
     inkscape:current-layer="svg4" />
  <path
     fill="currentColor"
     d="M336.5 160C322 70.7 287.8 8 248 8s-74 62.7-88.5 152h177zM152 256c0 22.2 1.2 43.5 3.3 64h185.3c2.1-20.5 3.3-41.8 3.3-64s-1.2-43.5-3.3-64H155.3c-2.1 20.5-3.3 41.8-3.3 64zm324.7-96c-28.6-67.9-86.5-120.4-158-141.6 24.4 33.8 41.2 84.7 50 141.6h108zM177.2 18.4C105.8 39.6 47.8 92.1 19.3 160h108c8.7-56.9 25.5-107.8 49.9-141.6zM487.4 192H372.7c2.1 21 3.3 42.5 3.3 64s-1.2 43-3.3 64h114.6c5.5-20.5 8.6-41.8 8.6-64s-3.1-43.5-8.5-64zM120 256c0-21.5 1.2-43 3.3-64H8.6C3.2 212.5 0 233.8 0 256s3.2 43.5 8.6 64h114.6c-2-21-3.2-42.5-3.2-64zm39.5 96c14.5 89.3 48.7 152 88.5 152s74-62.7 88.5-152h-177zm159.3 141.6c71.4-21.2 129.4-73.7 158-141.6h-108c-8.8 56.9-25.6 107.8-50 141.6zM19.3 352c28.6 67.9 86.5 120.4 158 141.6-24.4-33.8-41.2-84.7-50-141.6h-108z"
     id="path2" />
  <path
     style="fill:#ffffff;stroke-width:2.16949153"
     d="M 7.2948647,309.91186 C 6.0491054,305.43729 3.8628851,291.35259 2.4365974,278.61254 -0.23675856,254.73328 1.7271992,224.55905 7.4284891,201.91718 l 2.4425455,-9.70023 55.6068554,-3.5e-4 55.60686,-3.4e-4 v 62.91515 62.91515 l -55.762436,4.5e-4 -55.7624325,4.5e-4 z"
     id="path12"
     inkscape:connector-curvature="0" />
  <path
     style="fill:#ffffff;stroke-width:2.16949153"
     d="m 155.35678,312.08136 c -2.07,-7.68387 -2.04195,-106.03914 0.0325,-113.89831 l 1.57476,-5.9661 h 90.97901 90.979 l 1.64146,8.13559 c 2.06899,10.25465 2.07704,103.70443 0.01,111.72882 l -1.53705,5.9661 H 248 156.96402 Z"
     id="path14"
     inkscape:connector-curvature="0" />
  <path
     style="fill:#ffffff;stroke-width:2.16949153"
     d="m 374.91525,255.13141 v -62.91515 l 55.60686,3.4e-4 55.60686,3.5e-4 2.36683,9.39957 c 5.74729,22.82455 7.63275,51.28595 5.03354,75.98229 -1.39953,13.2976 -3.56714,27.83848 -4.81691,32.31305 l -2.27231,8.1356 -55.76243,-4.5e-4 -55.76244,-4.5e-4 z"
     id="path16"
     inkscape:connector-curvature="0" />
  <path
     style="fill:#ffffff;stroke-width:2.16949153"
     d="M 368.32965,151.53898 C 361.44657,110.318 344.02493,57.406644 329.34768,33.146622 c -8.7472,-14.458259 -8.72771,-14.463414 15.19469,-4.017218 54.21891,23.675772 97.81631,64.46292 123.88673,115.901106 l 7.42206,14.64407 h -53.08151 -53.08151 z"
     id="path18"
     inkscape:connector-curvature="0" />
  <path
     style="fill:#ffffff;stroke-width:2.16949153"
     d="m 162.2702,150.45424 c 4.64621,-29.93159 20.42766,-77.424508 32.96004,-99.190379 27.29214,-47.4002036 63.36508,-54.9613328 92.25923,-19.338153 9.70834,11.969269 19.78706,29.913698 26.82167,47.754012 5.87484,14.899079 17.09059,55.77673 19.41866,70.77452 l 1.43125,9.22034 H 248 160.83895 Z"
     id="path20"
     inkscape:connector-curvature="0" />
  <path
     style="fill:#ffffff;stroke-width:2.16949153"
     d="M 26.983272,146.11525 C 53.210448,94.141431 99.64547,50.422402 151.45763,28.921426 c 23.99823,-9.958771 23.64404,-10.055438 15.10632,4.122841 -8.78316,14.585885 -22.58652,49.258316 -28.82021,72.393023 -3.52348,13.07648 -11.23527,49.7244 -11.23527,53.3922 0,0.4648 -23.93269,0.84509 -53.183768,0.84509 H 20.140929 Z"
     id="path22"
     inkscape:connector-curvature="0" />
  <path
     style="fill:#ffffff;stroke-width:2.16949153"
     d="M 159.05085,486.33109 C 120.94444,472.27699 76.270058,438.4952 50.90401,404.55279 40.305035,390.37026 22.372881,359.55491 22.372881,355.52372 c 0,-2.1626 11.313496,-2.7644 51.969491,-2.7644 h 51.969488 l 1.33404,8.1356 c 6.20537,37.84341 22.64766,88.54742 37.2867,114.98305 7.97751,14.40603 7.43766,15.36547 -5.88175,10.45312 z"
     id="path24"
     inkscape:connector-curvature="0" />
  <path
     style="fill:#ffffff;stroke-width:2.16949153"
     d="m 226.78398,495.84526 c -11.98061,-6.87065 -26.73409,-24.49825 -36.32683,-43.40365 -10.26438,-20.22906 -29.23681,-83.48279 -29.23681,-97.47495 0,-1.46 29.38093,-2.20734 86.77966,-2.20734 57.39873,0 86.77966,0.74734 86.77966,2.20734 0,13.99216 -18.97243,77.24589 -29.23681,97.47495 -9.59274,18.9054 -24.34622,36.533 -36.32683,43.40365 -15.40842,8.83644 -27.02362,8.83644 -42.43204,0 z"
     id="path26"
     inkscape:connector-curvature="0" />
  <path
     style="fill:#ffffff;stroke-width:2.16949153"
     d="m 331.02095,476.18256 c 15.22345,-27.61882 30.6079,-75.1583 37.3087,-115.28764 l 1.35849,-8.1356 h 53.09078 53.09078 l -5.70157,11.38983 c -17.82503,35.60844 -49.73102,72.52476 -81.59232,94.40509 -17.04783,11.70738 -47.82071,27.3733 -58.95402,30.01243 l -6.24262,1.4798 z"
     id="path28"
     inkscape:connector-curvature="0" />
</svg>
